# xmcd CD database file
#
# Track frame offsets:
#	150
#	24090
#	41577
#	53270
#	65020
#	98347
#	105940
#	161122
#	173832
#	187925
#
# Disc length: 2654 seconds
#
# Revision: 0
# Processed by: cddbd v1.5.2PL0 Copyright (c) Steve Scherf et al.
# Submitted via: CDex 1.70beta2
#
DISCID=680a5c0a
DTITLE=吉沢元治 - 割れた鏡または化石の鳥
DYEAR=1975
DGENRE=Jazz
TTITLE0=ワルツ・トゥ・ランチ
TTITLE1=割れた鏡
TTITLE2=ささやき
TTITLE3=ビーンズ・ダンス
TTITLE4=オブセッション No.9
TTITLE5=小品
TTITLE6=化石の鳥
TTITLE7=しゃっくり
TTITLE8=クロッシングス
TTITLE9=ディスタンス
EXTD=YEAR: 1975
EXTT0=
EXTT1=
EXTT2=
EXTT3=
EXTT4=
EXTT5=
EXTT6=
EXTT7=
EXTT8=
EXTT9=
PLAYORDER=
